# xmcd
#
# Track frame offsets: 
#        150
#        31484
#        47583
#        61339
#        75767
#        90109
#        103021
#        110115
#        121423
#        173512
#        232648
#        261284
#
# Disc length: 3863 seconds
#
# Revision: 7
# Processed by: cddbd v1.5.2PL0 Copyright (c) Steve Scherf et al.
# Submitted via: ExactAudioCopy v0.95b4
#
DISCID=840f150c
DTITLE=Fleetwood Mac - The Complete Blue Horizon Sessions 1967-1969 [D
DTITLE=isc 3]
DYEAR=1999
DGENRE=Blues
TTITLE0=Need Your Love So Bad version #2 (Take 4)
TTITLE1=Rambling Pony
TTITLE2=I Believe My Time Ain't Long
TTITLE3=The Sun is Shining
TTITLE4=Albatross
TTITLE5=Black Magic Woman
TTITLE6=Jigsaw Puzzle Blues
TTITLE7=Like Crying
TTITLE8=Need Your Love So Bad version #1
TTITLE9=Need Your Love So Bad version #2 (Take 1, Take 2)
TTITLE10=Need Your Love So Bad
TTITLE11=Need Your Love So Bad (USA version)
EXTD=YEAR: 1999
EXTT0=
EXTT1=
EXTT2=
EXTT3=
EXTT4=
EXTT5=
EXTT6=
EXTT7=
EXTT8=
EXTT9=
EXTT10=
EXTT11=
PLAYORDER=
